<svg width="102" height="102" viewBox="0 0 102 102" fill="none" xmlns="http://www.w3.org/2000/svg">
<rect x="0.5" y="0.5" width="101" height="101" rx="12.5" fill="white" stroke="#DCDCDC"/>
<path d="M41.9668 72.2175H31.0593C30.6671 72.2175 30.3496 72.5351 30.3496 72.9273V83.9188C30.3496 84.311 30.6671 84.6285 31.0593 84.6285H41.9668C42.359 84.6285 42.6765 84.311 42.6765 83.9188V72.9273C42.6765 72.5351 42.359 72.2175 41.9668 72.2175ZM16.0615 70.5459V86.3188C16.0615 87.2433 16.818 87.9998 17.7425 87.9998H85.5407C86.4652 87.9998 87.2216 87.2433 87.2216 86.3188V70.5459C87.2216 69.6214 86.4652 68.865 85.5407 68.865H17.7425C16.818 68.865 16.0615 69.6214 16.0615 70.5459ZM26.8009 85.1515C26.8009 85.6091 26.4274 85.992 25.9604 85.992H19.4141C18.9565 85.992 18.5736 85.6184 18.5736 85.1515V71.7226C18.5736 71.265 18.9472 70.8821 19.4141 70.8821H25.9604C26.418 70.8821 26.8009 71.2557 26.8009 71.7226V85.1515ZM44.0213 83.9281C44.0213 85.0581 43.0968 85.9826 41.9668 85.9826H31.0593C29.9293 85.9826 29.0048 85.0581 29.0048 83.9281V72.9366C29.0048 71.8066 29.9293 70.8821 31.0593 70.8821H41.9668C43.0968 70.8821 44.0213 71.8066 44.0213 72.9366V83.9281ZM54.4525 85.1515C54.4525 85.6091 54.0789 85.992 53.612 85.992H47.0657C46.6081 85.992 46.2252 85.6184 46.2252 85.1515V71.7226C46.2252 71.265 46.5987 70.8821 47.0657 70.8821H53.612C54.0696 70.8821 54.4525 71.2557 54.4525 71.7226V85.1515ZM75.0347 83.9281C75.0347 85.0581 74.1102 85.9826 72.9803 85.9826H58.7109C57.5809 85.9826 56.6564 85.0581 56.6564 83.9281V72.9366C56.6564 71.8066 57.5809 70.8821 58.7109 70.8821H72.9803C74.1102 70.8821 75.0347 71.8066 75.0347 72.9366V83.9281ZM85.4566 85.1515C85.4566 85.6091 85.0831 85.992 84.6161 85.992H78.0698C77.6122 85.992 77.2293 85.6184 77.2293 85.1515V71.7226C77.2293 71.265 77.6029 70.8821 78.0698 70.8821H84.6161C85.0737 70.8821 85.4566 71.2557 85.4566 71.7226V85.1515ZM72.9803 72.2175H58.7109C58.3187 72.2175 58.0011 72.5351 58.0011 72.9273V83.9188C58.0011 84.311 58.3187 84.6285 58.7109 84.6285H72.9803C73.3725 84.6285 73.69 84.311 73.69 83.9188V72.9273C73.69 72.5351 73.3725 72.2175 72.9803 72.2175Z" fill="#6BD8DD"/>
<path d="M77.9478 59.8167H41.2378V60.4891H78.0412C78.0038 60.265 77.9758 60.0502 77.9478 59.8167ZM78.0599 56.5296H41.2378V57.2019H77.9478C77.9758 56.9685 78.0225 56.7537 78.0599 56.5296ZM79.1151 53.2517H41.2378V53.9241H78.8163C78.919 53.6906 79.0124 53.4665 79.1151 53.2517ZM41.2378 63.0946V63.767H79.0591C78.9564 63.5522 78.863 63.3281 78.7696 63.0946H41.2378Z" fill="#606CBF"/>
<path d="M80.0587 66.8573C79.0875 65.5032 77.4439 62.6456 77.4159 58.658C77.3879 54.5771 79.0595 51.6541 80.0587 50.272L80.7778 50.7949C79.8439 52.093 78.2844 54.8292 78.303 58.658C78.3311 62.4028 79.8626 65.083 80.7778 66.3437L80.0587 66.8667V66.8573Z" fill="#606CBF"/>
<path d="M15.2397 51.1219H80.8153C81.0675 51.1219 81.2729 50.9164 81.2729 50.6643V50.2347C81.2729 49.9826 81.0675 49.7771 80.8153 49.7771H15.2397C12.9051 49.7771 11 51.6822 11 54.0168V63.1033C11 65.4379 12.9051 67.343 15.2397 67.343H80.8153C81.0675 67.343 81.2729 67.1376 81.2729 66.8854V66.4558C81.2729 66.2037 81.0675 65.9982 80.8153 65.9982H15.2397C13.6428 65.9982 12.3448 64.7002 12.3448 63.1033V54.0168C12.3448 52.4199 13.6428 51.1219 15.2397 51.1219Z" fill="#606CBF"/>
<path d="M33.0481 56.5296V57.2019H77.9387C77.9574 56.9685 78.0041 56.7537 78.0321 56.5296H33.0481ZM78.9193 53.2517H13.876V53.9241H78.6671C78.7512 53.6906 78.8259 53.4665 78.9193 53.2517ZM33.0481 59.8167V60.4891H78.0134C77.9854 60.2743 77.9574 60.0502 77.9387 59.8167H33.0481ZM24.3072 56.5296H13.876V57.2019H24.3072V56.5296ZM13.876 63.0946V63.767H78.8726C78.7885 63.5615 78.7138 63.3281 78.6298 63.0946H13.876ZM24.3072 59.8167H13.876V60.4891H24.3072V59.8167Z" fill="#606CBF"/>
<path d="M32.2826 61.7775L28.6779 59.3402L25.0732 61.7775V56.5479H32.2826V61.7775Z" fill="#6BD8DD"/>
<path d="M83.3556 37.0202C80.9276 37.0202 78.9478 39 78.9478 41.428C78.9478 43.8561 80.9276 45.8358 83.3556 45.8358C85.7837 45.8358 87.7635 43.8561 87.7635 41.428C87.7635 39 85.7837 37.0202 83.3556 37.0202ZM32.7124 37.0202C30.2844 37.0202 28.3046 39 28.3046 41.428C28.3046 43.8561 30.2844 45.8358 32.7124 45.8358C35.1405 45.8358 37.1203 43.8561 37.1203 41.428C37.1203 39 35.1405 37.0202 32.7124 37.0202ZM25.6711 36.2078V46.144C25.6711 47.3207 26.6237 48.2639 27.791 48.2639H88.2864C89.4631 48.2639 90.4063 47.3113 90.4063 46.144V36.2078C90.4063 35.0311 89.4537 34.0879 88.2864 34.0879H27.791C26.6143 34.0879 25.6711 35.0404 25.6711 36.2078ZM32.7124 47.1713C29.5467 47.1713 26.9692 44.5938 26.9692 41.428C26.9692 38.2622 29.5467 35.6848 32.7124 35.6848C35.8782 35.6848 38.4557 38.2622 38.4557 41.428C38.4557 44.5938 35.8782 47.1713 32.7124 47.1713ZM41.5281 46.4989C41.5281 46.8724 41.2292 47.1713 40.8557 47.1713C40.4821 47.1713 40.1833 46.8724 40.1833 46.4989V36.3478C40.1833 35.9743 40.4821 35.6755 40.8557 35.6755C41.2292 35.6755 41.5281 35.9743 41.5281 36.3478V46.4989ZM43.9935 46.4989C43.9935 46.8724 43.6946 47.1713 43.3211 47.1713C42.9475 47.1713 42.6487 46.8724 42.6487 46.4989V36.3478C42.6487 35.9743 42.9475 35.6755 43.3211 35.6755C43.6946 35.6755 43.9935 35.9743 43.9935 36.3478V46.4989ZM46.4682 46.4989C46.4682 46.8724 46.1694 47.1713 45.7958 47.1713C45.4223 47.1713 45.1234 46.8724 45.1234 46.4989V36.3478C45.1234 35.9743 45.4223 35.6755 45.7958 35.6755C46.1694 35.6755 46.4682 35.9743 46.4682 36.3478V46.4989ZM58.0294 47.1713C52.6036 47.1713 48.1958 44.5938 48.1958 41.428C48.1958 38.2622 52.613 35.6848 58.0294 35.6848C63.4457 35.6848 67.8629 38.2622 67.8629 41.428C67.8629 44.5938 63.4457 47.1713 58.0294 47.1713ZM70.9353 46.4989C70.9353 46.8724 70.6365 47.1713 70.2629 47.1713C69.8894 47.1713 69.5905 46.8724 69.5905 46.4989V36.3478C69.5905 35.9743 69.8894 35.6755 70.2629 35.6755C70.6365 35.6755 70.9353 35.9743 70.9353 36.3478V46.4989ZM73.41 46.4989C73.41 46.8724 73.1112 47.1713 72.7376 47.1713C72.3641 47.1713 72.0653 46.8724 72.0653 46.4989V36.3478C72.0653 35.9743 72.3641 35.6755 72.7376 35.6755C73.1112 35.6755 73.41 35.9743 73.41 36.3478V46.4989ZM75.8848 46.4989C75.8848 46.8724 75.5859 47.1713 75.2124 47.1713C74.8388 47.1713 74.54 46.8724 74.54 46.4989V36.3478C74.54 35.9743 74.8388 35.6755 75.2124 35.6755C75.5859 35.6755 75.8848 35.9743 75.8848 36.3478V46.4989ZM83.3556 47.1713C80.1899 47.1713 77.6124 44.5938 77.6124 41.428C77.6124 38.2622 80.1899 35.6848 83.3556 35.6848C86.5214 35.6848 89.0989 38.2622 89.0989 41.428C89.0989 44.5938 86.5214 47.1713 83.3556 47.1713ZM58.0294 37.0202C53.4254 37.0202 49.5313 39.0373 49.5313 41.428C49.5313 43.8187 53.4254 45.8358 58.0294 45.8358C62.6333 45.8358 66.5275 43.8187 66.5275 41.428C66.5275 39.0373 62.6333 37.0202 58.0294 37.0202Z" fill="#6BD8DD"/>
<path d="M85.9235 28.3171H80.1149V28.9895H86.2317C86.1289 28.7747 86.0262 28.5506 85.9328 28.3171H85.9235ZM80.1055 25.0766V25.749H85.1764C85.1391 25.5249 85.0924 25.3101 85.0644 25.0766H80.0962H80.1055ZM47.2991 25.7397H71.374V25.0673H47.2991V25.7397ZM47.2991 28.9895H71.374V28.3171H47.2991V28.9895ZM85.1671 21.8268H47.2991V22.4992H85.0924C85.1204 22.2751 85.1297 22.0416 85.1671 21.8268ZM86.2223 18.577H47.2991V19.2493H85.9048C86.0075 19.0065 86.1103 18.7918 86.2223 18.577Z" fill="#606CBF"/>
<path d="M79.3489 30.3621L75.7442 27.9247L72.1301 30.3621V25.1418H79.3489V30.3621Z" fill="#6BD8DD"/>
<path d="M19.4979 28.1207V19.4452C19.4979 16.9891 21.4964 15 23.9431 15H20.3104C17.8543 15 15.8652 16.9985 15.8652 19.4452V28.1207C15.8652 30.5768 17.8637 32.5659 20.3104 32.5659H23.9431C21.4871 32.5659 19.4979 30.5674 19.4979 28.1207ZM21.7392 28.1207V19.4452C21.7392 16.9891 23.7377 15 26.1844 15H25.3532C22.8972 15 20.9081 16.9985 20.9081 19.4452V28.1207C20.9081 30.5768 22.9065 32.5659 25.3532 32.5659H26.1844C23.7283 32.5659 21.7392 30.5674 21.7392 28.1207ZM37.7456 28.1207V19.4452C37.7456 16.9891 39.744 15 42.1907 15H41.3596C38.9035 15 36.9144 16.9985 36.9144 19.4452V28.1207C36.9144 30.5768 38.9129 32.5659 41.3596 32.5659H42.1907C39.7347 32.5659 37.7456 30.5674 37.7456 28.1207ZM35.5136 28.1207V19.4452C35.5136 16.9891 37.5121 15 39.9588 15H27.5945C25.1385 15 23.1493 16.9985 23.1493 19.4452V28.1207C23.1493 30.5768 25.1478 32.5659 27.5945 32.5659H39.9588C37.5028 32.5659 35.5136 30.5674 35.5136 28.1207ZM48.5503 16.3447H87.707C87.9592 16.3447 88.1646 16.1393 88.1646 15.8872V15.4576C88.1646 15.2054 87.9592 15 87.707 15H43.5915C41.1355 15 39.1463 16.9985 39.1463 19.4452V28.1207C39.1463 30.5768 41.1448 32.5659 43.5915 32.5659H87.707C87.9592 32.5659 88.1646 32.3604 88.1646 32.1083V31.6787C88.1646 31.4266 87.9592 31.2211 87.707 31.2211H48.5503C46.8413 31.2211 45.4499 29.8297 45.4499 28.1207V19.4452C45.4499 17.7362 46.8413 16.3447 48.5503 16.3447Z" fill="#606CBF"/>
<path d="M86.9318 15.9801V16.1108C85.9326 17.4369 84.401 20.0144 84.3263 23.4977C84.2423 27.2144 85.8485 29.9973 86.9131 31.4262H45.7673L43.6661 25.4214L44.7867 15.9801H86.9225H86.9318ZM87.6042 15.3171H44.1984L42.9844 25.4961L45.291 32.0985H87.5948V31.2207C86.6143 29.96 84.9053 27.2518 84.9894 23.5164C85.0641 20.0424 86.6423 17.5583 87.5948 16.3443V15.3171H87.6042Z" fill="#606CBF"/>
</svg>
